# xmcd
#
# Track frame offsets: 
#        150
#        13187
#        36170
#        52139
#        79305
#        106820
#        133164
#
# Disc length: 2243 seconds
#
# Revision: 0
# Processed by: cddbd v1.5.2PL0 Copyright (c) Steve Scherf et al.
# Submitted via: ExactAudioCopy v0.99pb5
#
DISCID=5d08c107
DTITLE=Ultrabeat vs Darren Styles - Discolights
DYEAR=2008
DGENRE=Trance
TTITLE0=Discolights (Radio Edit)
TTITLE1=Discolights (Extended Mix)
TTITLE2=Discolights (Darren Styles Hardcore Mix)
TTITLE3=Discolights (Hypasonic Remix)
TTITLE4=Discolights (Scooter Remix)
TTITLE5=Discolights (Bassfreakerz Remix)
TTITLE6=Discolights (Riffs and Rays Remix)
EXTD=
EXTT0=
EXTT1=
EXTT2=
EXTT3=
EXTT4=
EXTT5=
EXTT6=
PLAYORDER=
